<svg width="56" height="274" viewBox="0 0 56 274" fill="none" xmlns="http://www.w3.org/2000/svg">
<path fill-rule="evenodd" clip-rule="evenodd" d="M1.82114 251.889C1.82114 269.343 13.4154 274 27.9991 274C42.5832 274 54.1789 269.343 54.1789 251.889V227.042H1.82114V251.889ZM46.8934 263.97V236.16H9.10478V263.97H46.8934ZM54.1789 173.245V191.345L3.0026 211.63H54.1789V220.748H1.82114V202.58L52.4465 182.363H1.82114L1.82114 173.245H54.1789ZM54.1789 138.214V129.119H54.178V129.022H46.8934V129.119H9.10478V129.022H1.82023V167.221H9.10478V138.214H25.0406L25.0406 167.318H32.3252L32.3252 138.214H46.8934L46.8934 167.221H54.178V138.214H54.1789ZM54.1789 59.2679L54.1789 77.3688L3.0026 97.6534H54.1789V106.772H1.82114V88.6037L52.4465 68.386H1.82114V59.2679H54.1789ZM-1.57952e-06 26.8985C-1.57952e-06 21.5448 1.16006 16.8412 3.48065 12.7864C5.85268 8.78441 9.15304 5.63957 13.3813 3.35274C17.6095 1.11697 22.482 0 28 0C33.5176 0 38.3646 1.11743 42.5418 3.35274C46.77 5.63957 50.0699 8.78441 52.442 12.7864C54.814 16.8412 56 21.5448 56 26.8985C56 32.3042 54.814 37.0082 52.442 41.0106C50.0699 45.0646 46.77 48.2094 42.5413 50.4443C38.3646 52.6796 33.518 53.797 28 53.797C22.482 53.797 17.6095 52.6796 13.3808 50.4443C9.15304 48.2094 5.85268 45.0646 3.48065 41.0106C1.16006 37.0078 -1.57952e-06 32.3042 -1.57952e-06 26.8985ZM46.8943 43.7671V10.0299L9.10569 10.0299V43.7671H46.8943Z" fill="black"/>
</svg>
