<svg xmlns="http://www.w3.org/2000/svg" viewBox="0 0 601 123"><path fill="currentColor" fill-rule="evenodd" d="M552.5 119c38.286 0 48.5-25.466 48.5-57.498C601 29.469 590.786 4 552.5 4H498v115h54.5ZM579 20.002h-61v83h61v-83ZM380 4h39.703l44.493 112.405V4h20v115h-39.85L400 7.805V119h-20V4Zm-76.837 0h-19.95v.002H283v16h.213v83H283v16h83.787v-16h-63.624V68H367V52h-63.837V20.002h63.624v-16h-63.624V4ZM130 4h39.703l44.493 112.405V4h20v115h-39.85L150 7.805V119h-20V4ZM59 123c-11.743 0-22.06-2.548-30.954-7.645-8.778-5.21-15.676-12.459-20.692-21.746C2.45 84.322 0 73.62 0 61.5c0-12.119 2.451-22.765 7.354-31.94 5.016-9.287 11.914-16.535 20.692-21.745C36.94 2.605 47.257 0 59 0c11.857 0 22.175 2.605 30.954 7.815 8.892 5.21 15.79 12.458 20.692 21.746C115.549 38.735 118 49.38 118 61.5s-2.451 22.822-7.354 32.11c-4.902 9.286-11.8 16.535-20.692 21.745C81.174 120.452 70.857 123 59 123ZM96 20H22v83h74V20Z" clip-rule="evenodd"/></svg>